<?xml version="1.0" encoding="UTF-8"?>
<svg width="1200" height="300" viewBox="0 0 1200 300" fill="none" xmlns="http://www.w3.org/2000/svg">
  <defs>
    <linearGradient id="bannerBg" x1="0%" y1="0%" x2="100%" y2="100%">
      <stop offset="0%" style="stop-color:#1E3A8A;stop-opacity:1" />
      <stop offset="50%" style="stop-color:#3B82F6;stop-opacity:1" />
      <stop offset="100%" style="stop-color:#1E40AF;stop-opacity:1" />
    </linearGradient>
    <linearGradient id="cardGradient" x1="0%" y1="0%" x2="100%" y2="100%">
      <stop offset="0%" style="stop-color:#FFFFFF;stop-opacity:0.95" />
      <stop offset="100%" style="stop-color:#F8FAFC;stop-opacity:0.9" />
    </linearGradient>
    <filter id="glow">
      <feGaussianBlur stdDeviation="3" result="coloredBlur"/>
      <feMerge> 
        <feMergeNode in="coloredBlur"/>
        <feMergeNode in="SourceGraphic"/>
      </feMerge>
    </filter>
  </defs>
  
  <!-- Background -->
  <rect width="1200" height="300" fill="url(#bannerBg)"/>
  
  <!-- Decorative elements -->
  <circle cx="100" cy="50" r="30" fill="#60A5FA" fill-opacity="0.3"/>
  <circle cx="1100" cy="250" r="40" fill="#34D399" fill-opacity="0.2"/>
  <circle cx="1050" cy="80" r="20" fill="#F59E0B" fill-opacity="0.4"/>
  
  <!-- Main content card -->
  <rect x="80" y="40" width="1040" height="220" rx="16" fill="url(#cardGradient)" stroke="#E2E8F0" stroke-width="2"/>
  
  <!-- Icon -->
  <g transform="translate(120, 80)">
    <circle cx="40" cy="40" r="35" fill="#3B82F6" stroke="#1E40AF" stroke-width="2"/>
    <rect x="20" y="20" width="40" height="40" rx="2" fill="#FFFFFF" stroke="#E2E8F0"/>
    <rect x="24" y="24" width="24" height="2" rx="1" fill="#374151"/>
    <rect x="24" y="28" width="32" height="2" rx="1" fill="#374151"/>
    <rect x="24" y="32" width="28" height="2" rx="1" fill="#374151"/>
    <rect x="22" y="38" width="36" height="8" rx="2" fill="#3B82F6" fill-opacity="0.2" stroke="#3B82F6" stroke-dasharray="2,1"/>
    <text x="40" y="44" font-family="Arial, sans-serif" font-size="6" font-weight="bold" text-anchor="middle" fill="#3B82F6">...</text>
    <rect x="24" y="50" width="26" height="2" rx="1" fill="#374151"/>
    <rect x="24" y="54" width="22" height="2" rx="1" fill="#374151"/>
  </g>
  
  <!-- Title -->
  <text x="240" y="120" font-family="Arial, sans-serif" font-size="48" font-weight="bold" fill="#1F2937" filter="url(#glow)">DocuFold</text>
  
  <!-- Subtitle -->
  <text x="240" y="150" font-family="Arial, sans-serif" font-size="24" font-weight="500" fill="#4B5563">Smart Docstring Folding for VSCode</text>
  
  <!-- Features -->
  <g transform="translate(240, 170)">
    <text x="0" y="20" font-family="Arial, sans-serif" font-size="16" fill="#6B7280">✨ Auto-fold docstrings across 8+ languages</text>
    <text x="0" y="40" font-family="Arial, sans-serif" font-size="16" fill="#6B7280">⚡ Performance optimized for large files</text>
    <text x="0" y="60" font-family="Arial, sans-serif" font-size="16" fill="#6B7280">🎯 Smart preview system with hover tooltips</text>
  </g>
  
  <!-- Language badges -->
  <g transform="translate(680, 170)">
    <rect x="0" y="0" width="60" height="24" rx="12" fill="#F59E0B" stroke="#D97706"/>
    <text x="30" y="16" font-family="Arial, sans-serif" font-size="12" font-weight="bold" text-anchor="middle" fill="white">Python</text>
    
    <rect x="70" y="0" width="50" height="24" rx="12" fill="#10B981" stroke="#059669"/>
    <text x="95" y="16" font-family="Arial, sans-serif" font-size="12" font-weight="bold" text-anchor="middle" fill="white">JS/TS</text>
    
    <rect x="130" y="0" width="45" height="24" rx="12" fill="#8B5CF6" stroke="#7C3AED"/>
    <text x="152.5" y="16" font-family="Arial, sans-serif" font-size="12" font-weight="bold" text-anchor="middle" fill="white">Java</text>
    
    <rect x="185" y="0" width="40" height="24" rx="12" fill="#EF4444" stroke="#DC2626"/>
    <text x="205" y="16" font-family="Arial, sans-serif" font-size="12" font-weight="bold" text-anchor="middle" fill="white">C#</text>
    
    <rect x="235" y="0" width="45" height="24" rx="12" fill="#06B6D4" stroke="#0891B2"/>
    <text x="257.5" y="16" font-family="Arial, sans-serif" font-size="12" font-weight="bold" text-anchor="middle" fill="white">PHP</text>
    
    <text x="0" y="45" font-family="Arial, sans-serif" font-size="14" font-weight="500" fill="#6B7280">+ More languages supported</text>
  </g>
  
  <!-- Version badge -->
  <rect x="1000" y="80" width="80" height="30" rx="15" fill="#34D399" stroke="#10B981" stroke-width="2"/>
  <text x="1040" y="100" font-family="Arial, sans-serif" font-size="14" font-weight="bold" text-anchor="middle" fill="white">v0.0.1</text>
</svg> 